<svg width="60" height="60" viewBox="0 0 60 60" fill="none" xmlns="http://www.w3.org/2000/svg">
<rect width="60" height="60" fill="none"/>
<g id="mdi-light:email">
<path id="Vector" d="M12.5 12.5H45C46.9891 12.5 48.8968 13.2902 50.3033 14.6967C51.7098 16.1032 52.5 18.0109 52.5 20V42.5C52.5 44.4891 51.7098 46.3968 50.3033 47.8033C48.8968 49.2098 46.9891 50 45 50H12.5C10.5109 50 8.60322 49.2098 7.1967 47.8033C5.79018 46.3968 5 44.4891 5 42.5V20C5 18.0109 5.79018 16.1032 7.1967 14.6967C8.60322 13.2902 10.5109 12.5 12.5 12.5ZM12.5 15C11.25 15 10.15 15.425 9.3 16.175L28.75 28.75L48.2 16.175C47.35 15.425 46.25 15 45 15H12.5ZM28.75 31.775L7.825 18.2C7.625 18.75 7.5 19.375 7.5 20V42.5C7.5 43.8261 8.02678 45.0979 8.96447 46.0355C9.90215 46.9732 11.1739 47.5 12.5 47.5H45C46.3261 47.5 47.5979 46.9732 48.5355 46.0355C49.4732 45.0979 50 43.8261 50 42.5V20C50 19.375 49.875 18.75 49.675 18.2L28.75 31.775Z" fill="black"/>
</g>
</svg>
