<svg width="149" height="176" viewBox="0 0 149 176" fill="none" xmlns="http://www.w3.org/2000/svg">
<rect x="49.7023" y="115.198" width="10.5954" height="58.458" fill="#22D130" stroke="black" stroke-width="2"/>
<path d="M95.4976 135.859C95.2349 140.439 94.2048 144.947 92.4452 149.196C90.3855 154.168 87.3666 158.686 83.5608 162.492C79.755 166.298 75.2369 169.317 70.2644 171.376C65.2919 173.436 59.9624 174.496 54.5802 174.496C49.198 174.496 43.8685 173.436 38.896 171.376C33.9235 169.317 29.4054 166.298 25.5996 162.492C21.7938 158.686 18.7749 154.168 16.7152 149.196C14.9556 144.947 13.9255 140.439 13.6627 135.859L53.9016 173.035L54.5802 173.662L55.2588 173.035L95.4976 135.859Z" fill="#4FA255" stroke="black" stroke-width="2"/>
<path d="M92.964 61.1374H15.5488C7.51373 61.1374 1 54.6237 1 46.5886V24.9941C1 17.9414 9.97596 14.9457 14.2118 20.5847C17.9989 25.6264 25.5906 25.545 29.2688 20.4232L30.3974 18.8517C33.6614 14.3066 40.3931 14.2197 43.7734 18.6789L44.3695 19.4654C48.4979 24.9115 56.8241 24.4558 60.3335 18.5917C62.9776 14.1735 69.1445 13.5789 72.5841 17.4105L75.9312 21.139C80.4374 26.1589 88.3143 26.1226 92.7741 21.0614C98.4228 14.651 109 18.6462 109 27.1904V45.1014C109 53.9579 101.82 61.1374 92.964 61.1374Z" fill="#D9D9D9" stroke="black" stroke-width="2"/>
<path d="M109 58.3588C109 61.2015 107.632 63.9983 104.973 66.6374C102.311 69.2802 98.4075 71.7062 93.5038 73.765C83.7005 77.8809 70.088 80.4504 55 80.4504C39.912 80.4504 26.2995 77.8809 16.4962 73.765C11.5925 71.7062 7.68909 69.2802 5.02666 66.6374C2.36797 63.9983 1 61.2015 1 58.3588C1 55.4562 2.28861 52.125 4.79926 48.7172C7.30213 45.3201 10.9728 41.913 15.6073 38.8787C24.8748 32.8108 37.91 28.2901 52.9008 28.2901C67.8973 28.2901 81.9983 32.8145 92.3336 38.9036C97.5013 41.9482 101.697 45.3656 104.587 48.7712C107.494 52.1948 109 55.5069 109 58.3588Z" fill="#D85021" stroke="black" stroke-width="2"/>
<path d="M19.9942 67.7932L37.3885 48.4152L54.2457 67.7818L55 68.6483L55.7543 67.7818L72.6115 48.4152L90.0058 67.7932L90.7412 68.6124L91.4862 67.802L109 48.7488V63.397C109 93.2204 84.8234 117.397 55 117.397C25.1766 117.397 1 93.2203 1 63.397V48.7488L18.5138 67.802L19.2588 68.6124L19.9942 67.7932Z" fill="#FEE7DB" stroke="black" stroke-width="2"/>
<path d="M54.6482 66.5977L54.5796 66.593L54.5111 66.5978L11.0345 69.6077C5.60841 69.9833 1 65.6829 1 60.2438V47.0469C1 40.2216 10.2526 38.1311 13.187 44.2933C16.2705 50.7688 25.5262 50.6551 28.4497 44.1058L30.2135 40.1546C32.6833 34.6217 40.6042 34.8198 42.7943 40.4694L42.9376 40.8392C45.7644 48.1313 56.0448 48.2355 59.0188 41.0021C61.3184 35.4088 69.2818 35.5303 71.4097 41.1912L72.2664 43.4702C74.9831 50.6976 84.6801 51.9375 89.1281 45.6263L91.3869 42.4211C96.8363 34.6889 109 38.5445 109 48.0041V54.1603V63.8168C109 67.3256 106.029 70.1009 102.528 69.8623L54.6482 66.5977Z" fill="#FEE7DB" stroke="black" stroke-width="2"/>
<path d="M2 58C2 56.3431 3.34315 55 5 55H105C106.657 55 108 56.3431 108 58V63V69L106.903 70.0969C106.326 70.6739 105.539 70.991 104.723 70.975L55 70L6.64402 70.9671C5.61988 70.9876 4.65608 70.4841 4.08788 69.6318L2 66.5V58Z" fill="#FEE7DB"/>
<path d="M83.7442 88.8985L96.1885 75.0351L108.246 88.8871L109 89.7536L109.754 88.8871L121.812 75.0351L134.256 88.8985L134.991 89.7178L135.736 88.9073L148 75.5656V85.5191C148 107.058 130.539 124.519 109 124.519C87.4609 124.519 70 107.058 70 85.5191V75.5656L82.2638 88.9073L83.0088 89.7178L83.7442 88.8985Z" fill="#FFB3B3" stroke="black" stroke-width="2"/>
<rect x="105.42" y="131.405" width="7.16031" height="41.9695" fill="#D9D9D9" stroke="black" stroke-width="2"/>
<path d="M138.134 146.824C137.886 149.889 137.162 152.902 135.981 155.753C134.497 159.336 132.321 162.592 129.579 165.334C126.836 168.077 123.58 170.252 119.997 171.737C116.426 173.216 112.6 173.979 108.735 173.985L109.373 173.395L138.134 146.824ZM108.016 173.395L108.654 173.985C104.79 173.979 100.963 173.216 97.3924 171.737C93.8092 170.252 90.5533 168.077 87.8108 165.334C85.0683 162.592 82.8928 159.336 81.4086 155.753C80.228 152.902 79.5031 149.889 79.2559 146.824L108.016 173.395Z" fill="#4FA255" stroke="black" stroke-width="2"/>
<path d="M83.7442 95.6161L96.1885 81.7526L108.246 95.6047L109 96.4712L109.754 95.6047L121.812 81.7526L134.256 95.6161L134.991 96.4354L135.736 95.6249L148 82.2832V92.2367C148 113.776 130.539 131.237 109 131.237C87.4609 131.237 70 113.776 70 92.2367V82.2832L82.2638 95.6249L83.0088 96.4354L83.7442 95.6161Z" fill="#FA6262" stroke="black" stroke-width="2"/>
</svg>
