<svg width="60" height="60" viewBox="0 0 60 60" fill="none" xmlns="http://www.w3.org/2000/svg">
<rect width="60" height="60" fill="none"/>
<g id="circum:linkedin">
<path id="Vector" d="M46.1 7.64999H13.9C12.2438 7.65461 10.6568 8.31458 9.48568 9.48568C8.31458 10.6568 7.65461 12.2438 7.64999 13.9V46.1C7.65461 47.7562 8.31458 49.3432 9.48568 50.5143C10.6568 51.6854 12.2438 52.3454 13.9 52.35H46.1C47.7576 52.35 49.3473 51.6915 50.5194 50.5194C51.6915 49.3473 52.35 47.7576 52.35 46.1V13.9C52.35 12.2424 51.6915 10.6527 50.5194 9.48058C49.3473 8.30847 47.7576 7.64999 46.1 7.64999ZM49.85 46.1C49.8428 47.0923 49.4454 48.042 48.7437 48.7437C48.042 49.4454 47.0923 49.8428 46.1 49.85H13.9C12.9077 49.8428 11.958 49.4454 11.2563 48.7437C10.5546 48.042 10.1572 47.0923 10.15 46.1V13.9C10.1572 12.9077 10.5546 11.958 11.2563 11.2563C11.958 10.5546 12.9077 10.1572 13.9 10.15H46.1C47.0923 10.1572 48.042 10.5546 48.7437 11.2563C49.4454 11.958 49.8428 12.9077 49.85 13.9V46.1Z" fill="black"/>
<path id="Vector_2" d="M15.94 26.87C15.94 26.207 16.2034 25.5711 16.6722 25.1022C17.1411 24.6334 17.777 24.37 18.44 24.37C19.103 24.37 19.7389 24.6334 20.2078 25.1022C20.6766 25.5711 20.94 26.207 20.94 26.87V43.12C20.94 43.783 20.6766 44.4189 20.2078 44.8878C19.7389 45.3566 19.103 45.62 18.44 45.62C17.777 45.62 17.1411 45.3566 16.6722 44.8878C16.2034 44.4189 15.94 43.783 15.94 43.12V26.87Z" fill="black"/>
<path id="Vector_3" d="M18.44 19.36C19.8207 19.36 20.94 18.2407 20.94 16.86C20.94 15.4793 19.8207 14.36 18.44 14.36C17.0593 14.36 15.94 15.4793 15.94 16.86C15.94 18.2407 17.0593 19.36 18.44 19.36Z" fill="black"/>
<path id="Vector_4" d="M44.05 33.425V43.125C44.05 43.788 43.7866 44.4239 43.3178 44.8928C42.8489 45.3616 42.213 45.625 41.55 45.625C40.887 45.625 40.2511 45.3616 39.7822 44.8928C39.3134 44.4239 39.05 43.788 39.05 43.125V33.425C39.05 32.3542 38.6246 31.3272 37.8674 30.5701C37.1103 29.8129 36.0833 29.3875 35.0125 29.3875C33.9417 29.3875 32.9147 29.8129 32.1576 30.5701C31.4004 31.3272 30.975 32.3542 30.975 33.425V43.125C30.975 43.788 30.7116 44.4239 30.2428 44.8928C29.7739 45.3616 29.138 45.625 28.475 45.625C27.812 45.625 27.1761 45.3616 26.7072 44.8928C26.2384 44.4239 25.975 43.788 25.975 43.125V26.875C25.9853 26.2152 26.252 25.5853 26.7186 25.1186C27.1853 24.652 27.8152 24.3853 28.475 24.375C28.8984 24.3634 29.3171 24.4665 29.6868 24.6733C30.0565 24.8801 30.3634 25.1831 30.575 25.55C31.9495 24.7701 33.5048 24.3649 35.0852 24.375C36.6656 24.3851 38.2155 24.8101 39.58 25.6075C40.9445 26.405 42.0756 27.5468 42.86 28.9187C43.6445 30.2907 44.0549 31.8446 44.05 33.425Z" fill="black"/>
</g>
</svg>
