<svg width="40" height="40" viewBox="0 0 40 40" fill="none" xmlns="http://www.w3.org/2000/svg">
<path d="M6 32C6 24.268 12.268 18 20 18C27.732 18 34 24.268 34 32V33H6V32Z" fill="#F1F1F1" fill-opacity="0.85"/>
<path d="M24.5 17.5H21.25V15H25V12.5H15V15H18.75V17.5H15.5C9.87 17.5 5.2875 21.935 5.025 27.5H5V35H35V27.5H34.975C34.7125 21.935 30.13 17.5 24.5 17.5ZM15.5 20H24.5C28.6588 20 32.0863 23.4387 32.465 27.5H7.535C7.91375 23.4387 11.3412 20 15.5 20ZM32.5 32.5H7.5V30H32.5V32.5ZM16.64 8.75H35V11.25H16.64C13.1938 11.25 10.39 8.44625 10.39 5H12.89C12.89 7.07125 14.57 8.75 16.64 8.75Z" fill="black"/>
</svg>
