<svg width="60" height="60" viewBox="0 0 60 60" fill="none" xmlns="http://www.w3.org/2000/svg">
<rect width="60" height="60" fill="none"/>
<path d="M24.1325 52.1625C24.1321 51.9794 24.0916 51.7986 24.0138 51.6328C23.936 51.4671 23.8228 51.3204 23.6822 51.2031C23.5415 51.0859 23.3769 51.0009 23.1999 50.9541C23.0228 50.9073 22.8377 50.9 22.6575 50.9325C18.6825 51.67 13.6375 51.68 12.1725 47.565C11.2712 45.3661 9.827 43.4317 7.975 41.9425C7.59197 41.7463 7.24665 41.4839 6.955 41.1675C6.90768 40.8756 6.75838 40.6098 6.53363 40.4176C6.30889 40.2253 6.02325 40.119 5.7275 40.1175H5.7225C5.39141 40.1175 5.07385 40.2489 4.8395 40.4827C4.60515 40.7166 4.47316 41.0339 4.4725 41.365C4.465 42.79 6.2475 43.8575 6.7775 44.14C8.1025 45.3275 9.145 46.8 9.8325 48.4425C10.7025 50.8925 13.3575 54.68 21.6375 53.6225C21.645 54.535 21.6575 55.005 21.6675 55.365L21.68 56.1C21.68 56.4315 21.8117 56.7495 22.0461 56.9839C22.2805 57.2183 22.5985 57.35 22.93 57.35C23.2615 57.35 23.5795 57.2183 23.8139 56.9839C24.0483 56.7495 24.18 56.4315 24.18 56.1L24.1675 55.295C24.139 54.2511 24.1273 53.2068 24.1325 52.1625ZM52.3025 13.06C52.2235 12.96 52.1435 12.8608 52.0625 12.7625C52.23 12.2375 52.3625 11.695 52.4575 11.15C52.8448 8.46714 52.502 5.72948 51.465 3.225C51.3972 3.05496 51.2928 2.90189 51.1594 2.77661C51.0259 2.65134 50.8665 2.55691 50.6925 2.5C50.34 2.3825 47.11 1.5125 40.3675 5.955C34.7206 4.51976 28.8044 4.51976 23.1575 5.955C16.4175 1.565 13.2075 2.3875 12.85 2.4925C12.6725 2.54818 12.5096 2.64254 12.373 2.76877C12.2364 2.895 12.1295 3.04997 12.06 3.2225C11.0039 5.76498 10.6633 8.54787 11.075 11.27C11.17 11.77 11.2925 12.2625 11.4375 12.75C11.3518 12.8548 11.2684 12.9615 11.1875 13.07C9.07176 15.7549 7.94605 19.0871 8 22.505C7.995 23.28 8.03 24.055 8.1075 24.8275C8.9575 36.4875 16.48 39.7325 22.975 40.84C22.5528 41.5992 22.2365 42.4125 22.035 43.2575C21.9645 43.5764 22.0215 43.9102 22.194 44.1876C22.3665 44.4649 22.6407 44.6638 22.9579 44.7415C23.2751 44.8193 23.6102 44.7698 23.8914 44.6036C24.1726 44.4375 24.3776 44.1679 24.4625 43.8525C24.695 42.7025 25.275 41.6525 26.125 40.8475C26.308 40.6882 26.4407 40.4792 26.5069 40.2458C26.5732 40.0124 26.57 39.7648 26.4979 39.5331C26.4258 39.3015 26.2879 39.0958 26.1009 38.9412C25.914 38.7866 25.6861 38.6898 25.445 38.6625C18.555 37.88 11.4 35.6 10.6 24.6C10.5294 23.904 10.4968 23.2046 10.5025 22.505C10.4551 19.6357 11.4 16.838 13.1775 14.585C13.3675 14.33 13.5775 14.1 13.785 13.87C13.9404 13.6982 14.0451 13.4867 14.0874 13.2589C14.1298 13.0312 14.1082 12.7962 14.025 12.58C13.812 12.0164 13.6496 11.4349 13.54 10.8425C13.2405 8.8334 13.4397 6.78149 14.12 4.8675C17.0885 5.27969 19.8923 6.47962 22.24 8.3425C22.3899 8.44417 22.5602 8.51183 22.739 8.54077C22.9178 8.5697 23.1007 8.5592 23.275 8.51C28.8354 7.00161 34.6971 7.00161 40.2575 8.51C40.4322 8.55907 40.6155 8.56951 40.7947 8.54058C40.9739 8.51166 41.1446 8.44406 41.295 8.3425C43.6262 6.45816 46.4295 5.24931 49.4 4.8475C50.0721 6.73377 50.2754 8.75517 49.9925 10.7375C49.882 11.3671 49.7095 11.9843 49.4775 12.58C49.3946 12.7964 49.3734 13.0316 49.4162 13.2593C49.459 13.4871 49.5642 13.6985 49.72 13.87C49.94 14.1125 50.1575 14.3825 50.3525 14.625C52.1339 16.8604 53.0799 19.6471 53.0275 22.505C53.0325 23.22 52.9975 23.935 52.9225 24.645C52.13 35.5975 44.9475 37.875 38.03 38.6625C37.7887 38.6894 37.5605 38.7859 37.3732 38.9404C37.1859 39.0948 37.0476 39.3004 36.9752 39.5321C36.9029 39.7638 36.8995 40.0116 36.9656 40.2452C37.0317 40.4788 37.1644 40.6881 37.3475 40.8475C38.21 41.66 38.7875 42.7275 38.995 43.895C39.2075 44.7175 39.3075 45.565 39.29 46.415V52.565C39.265 54.2525 39.265 55.52 39.265 56.1C39.265 56.4315 39.3967 56.7495 39.6311 56.9839C39.8655 57.2183 40.1835 57.35 40.515 57.35C40.8465 57.35 41.1645 57.2183 41.3989 56.9839C41.6333 56.7495 41.765 56.4315 41.765 56.1C41.765 55.525 41.765 54.2725 41.79 52.5825V46.415C41.8089 45.3569 41.6827 44.3013 41.415 43.2775C41.2272 42.4253 40.9182 41.6045 40.4975 40.84C47.02 39.735 54.5725 36.49 55.4125 24.8775C55.495 24.09 55.535 23.2975 55.5275 22.505C55.5843 19.0773 54.4438 15.7371 52.3025 13.06Z" fill="black"/>
</svg>
