<svg width="300" height="344" viewBox="0 0 300 344" fill="none" xmlns="http://www.w3.org/2000/svg">
<path d="M189.402 145.41L206 161.878C207.28 163.148 207.543 165.12 206.642 166.681C205.724 168.271 203.837 169.024 202.077 168.504L179.657 161.871C173.539 160.061 170.722 153.006 173.913 147.481C177.148 141.878 184.81 140.854 189.402 145.41Z" fill="#5DBF64" stroke="black" stroke-width="2"/>
<rect x="181.695" y="152.686" width="1.54924" height="37.678" transform="rotate(-60 181.695 152.686)" fill="#4FA255" stroke="black" stroke-width="1.54924"/>
<path d="M259.977 136.909L231.951 146.529C230.716 146.953 229.353 146.443 228.7 145.312C228.039 144.166 228.294 142.711 229.306 141.859L251.972 122.773C255.906 119.46 261.879 120.508 264.45 124.962C267.05 129.464 264.895 135.221 259.977 136.909Z" fill="#5DBF64" stroke="black" stroke-width="2"/>
<rect x="255.569" y="129.483" width="1.23925" height="41.1214" transform="rotate(60 255.569 129.483)" fill="#4FA255" stroke="black" stroke-width="1.23925"/>
<path d="M183.778 91.7654L205.925 122.503C206.665 123.53 206.551 124.943 205.656 125.838C204.751 126.743 203.319 126.849 202.291 126.086L171.867 103.511C167.716 100.431 167.27 94.383 170.925 90.7282C174.614 87.0397 180.729 87.5331 183.778 91.7654Z" fill="#5DBF64" stroke="black" stroke-width="2"/>
<rect x="178.976" y="99.5366" width="1.22753" height="49.234" transform="rotate(-45 178.976 99.5366)" fill="#4FA255" stroke="black" stroke-width="1.22753"/>
<rect x="212.385" y="78.5385" width="11.8462" height="127.231" fill="#4FA255" stroke="black" stroke-width="2"/>
<path d="M186.949 49.1316L199.666 38.2677C206.873 32.1111 218.041 36.1428 219.653 45.4831C219.857 46.6672 219.886 47.8749 219.738 49.0673L217.679 65.6655C215.791 80.8833 197.407 87.4973 186.257 76.97C178.166 69.3303 178.488 56.3599 186.949 49.1316Z" fill="#FFFDD9" stroke="black" stroke-width="2"/>
<path d="M196.911 31.3528L217.232 38.0897C225.626 40.8723 227.241 52.0429 219.979 57.0887C219.113 57.6906 218.163 58.1614 217.159 58.4861L196.79 65.0765C183.408 69.4062 170.549 57.1881 174.189 43.6024C176.831 33.7442 187.224 28.1411 196.911 31.3528Z" fill="#FFFDD9" stroke="black" stroke-width="2"/>
<path d="M200.075 67.5319L201.415 53.5407C202.351 43.7779 213.793 39.0073 221.386 45.2052L232.267 55.0268C244.818 66.3555 237.802 87.2012 220.955 88.6349C208.934 89.6579 198.924 79.5409 200.075 67.5319Z" fill="#FFFDD9" stroke="black" stroke-width="2"/>
<path d="M214.539 41.5506L240.3 41.5506C254.694 41.5506 263.235 57.6391 255.172 69.5616L256 70.1219L255.135 69.6203C250.224 78.0898 239.143 80.5871 231.073 75.0427L214.888 63.9217C214.197 63.4467 213.463 63.0363 212.696 62.6959L210.283 61.6241C201.968 57.9317 201.976 46.1282 210.296 42.4473C211.632 41.856 213.078 41.5506 214.539 41.5506Z" fill="#FFFDD9" stroke="black" stroke-width="2"/>
<path d="M236.085 51.2863L236.075 51.288L236.065 51.2899L218.09 54.6206C213.211 55.5247 208.828 51.4972 209.317 46.56L211.281 28.2767C211.697 24.4022 214.855 21.3973 218.745 21.1735C219.528 21.1285 220.304 20.9911 221.055 20.7642L236.527 16.0906C244.078 13.8098 252.252 16.4518 257.039 22.7208L258.264 24.325C261.861 29.0363 262.49 35.3754 259.887 40.7013C257.659 45.2607 253.359 48.4573 248.351 49.2775L236.085 51.2863Z" fill="#FFFDD9" stroke="black" stroke-width="2"/>
<path d="M222.892 1.53076L225.875 1.59704C237.977 1.86599 247.068 12.7293 245.212 24.6809L242.341 34.0772C239.494 43.3927 229.719 48.7198 220.348 46.0623C215.815 44.7768 211.972 41.7549 209.653 37.6528L205.583 30.4529C204.377 28.3182 203.586 25.974 203.253 23.5445C201.635 11.728 210.968 1.26579 222.892 1.53076Z" fill="#FFFDD9" stroke="black" stroke-width="2"/>
<path d="M211.277 17.7427L218.006 29.3978C222.901 37.8761 216.774 48.4724 206.984 48.4596C205.259 48.4573 203.551 48.1036 201.967 47.4201L189.61 42.0893C176.646 36.4969 175.599 18.5182 187.826 11.4591C196.037 6.71848 206.536 9.53175 211.277 17.7427Z" fill="#FFFDD9" stroke="black" stroke-width="2"/>
<path d="M251.604 46.0377C251.604 64.2423 236.846 79 218.641 79C200.437 79 185.679 64.2423 185.679 46.0377C185.679 27.8331 200.437 13.0754 218.641 13.0754C236.846 13.0754 251.604 27.8331 251.604 46.0377Z" fill="#FAA500" stroke="black" stroke-width="2"/>
<rect x="31" y="180" width="98" height="14" fill="#90AED0" stroke="black" stroke-width="2"/>
<rect x="31" y="195" width="98" height="14" fill="#AD8071" stroke="black" stroke-width="2"/>
<rect x="31" y="210" width="98" height="14" fill="#5DBF64" stroke="black" stroke-width="2"/>
<rect x="31" y="225" width="98" height="14" fill="#FFB800" stroke="black" stroke-width="2"/>
<rect x="17" y="258" width="266" height="85" fill="#B9390D" stroke="black" stroke-width="2"/>
<path d="M5 241H295C297.209 241 299 242.791 299 245V260.228H1V245C1 242.791 2.79086 241 5 241Z" fill="#832A0B" stroke="black" stroke-width="2"/>
<path d="M202.905 240L199.105 202H236.904L233.421 240H202.905Z" fill="#FF5C00" stroke="black" stroke-width="2"/>
</svg>
